<svg width="48" height="48" viewBox="0 0 48 48" fill="none" xmlns="http://www.w3.org/2000/svg">
<rect width="48" height="48" rx="4" fill="#D8B683" fill-opacity="0.3"/>
<path d="M29.1613 22.4516V17.2903H28.129V22.4516H29.1613Z" fill="#242C40"/>
<path d="M31.2258 17.2903V22.4516H30.1935V17.2903H31.2258Z" fill="#242C40"/>
<path d="M33.2903 22.4516V17.2903H32.2581V22.4516H33.2903Z" fill="#242C40"/>
<path d="M35.3548 17.2903V22.4516H34.3226V17.2903H35.3548Z" fill="#242C40"/>
<path fill-rule="evenodd" clip-rule="evenodd" d="M38.4516 13.1613C39.3052 13.1613 40 13.8561 40 14.7097C40 15.4002 39.5426 15.9798 38.9171 16.1787L38.1575 22.2555C37.997 23.5444 36.8959 24.5161 35.597 24.5161H34.8387V25.0323H33.8064V24.5161H27.8868C26.5885 24.5161 25.4874 23.5444 25.3264 22.2555L24.5668 16.1787C23.9413 15.9798 23.4839 15.4002 23.4839 14.7097C23.4839 13.8561 24.1787 13.1613 25.0323 13.1613H27.1898L28.1394 8.41507C28.1872 8.17339 28.3989 8 28.6452 8H30.7097C30.8644 8 31.0106 8.06905 31.1091 8.18901C31.2072 8.30822 31.2465 8.46547 31.216 8.61719L30.3072 13.1613H33.1767L32.2684 8.61719C32.2379 8.46547 32.2772 8.30822 32.3753 8.18901C32.4733 8.06905 32.6195 8 32.7742 8H34.8387C35.0849 8 35.2966 8.17339 35.3445 8.41507L36.2941 13.1613H38.4516ZM34.4156 9.03226H33.404L34.2296 13.1613H35.2412L34.4156 9.03226ZM30.0799 9.03226H29.0683L28.2427 13.1613H29.2543L30.0799 9.03226ZM35.597 23.4839C36.3763 23.4839 37.0368 22.9007 37.1333 22.1275L37.8674 16.2581H25.6169L26.3506 22.1275C26.4471 22.9007 27.1076 23.4839 27.8868 23.4839H35.597ZM25.0323 15.2258H38.4516C38.7359 15.2258 38.9677 14.994 38.9677 14.7097C38.9677 14.4254 38.7359 14.1935 38.4516 14.1935H25.0323C24.748 14.1935 24.5161 14.4254 24.5161 14.7097C24.5161 14.994 24.748 15.2258 25.0323 15.2258Z" fill="#242C40"/>
<path d="M33.7906 27.0628C33.8007 26.9032 33.8064 26.7422 33.8064 26.5806V26.0645H34.8387V26.5806C34.8387 26.7649 34.8324 26.9481 34.8206 27.1298L33.7906 27.0628Z" fill="#242C40"/>
<path d="M29.6449 33.1268L30.0832 34.062C30.4138 33.907 30.7376 33.7281 31.0451 33.5297L30.4861 32.6618C30.2167 32.8347 29.934 32.9909 29.6449 33.1268Z" fill="#242C40"/>
<path d="M34.3861 29.283L33.4105 28.9456C33.5159 28.6426 33.6011 28.3304 33.6641 28.0159L34.6762 28.2198C34.6033 28.5791 34.5058 28.9367 34.3861 29.283Z" fill="#242C40"/>
<path d="M32.5456 30.66L33.3967 31.244C33.6036 30.9425 33.7921 30.6235 33.9567 30.2969L33.0353 29.8317C32.8914 30.1177 32.7263 30.3964 32.5456 30.66Z" fill="#242C40"/>
<path d="M31.9272 32.8737L31.2588 32.0877C31.503 31.8803 31.7351 31.6547 31.9493 31.4168L32.716 32.1079C32.4713 32.3793 32.2059 32.6373 31.9272 32.8737Z" fill="#242C40"/>
<path d="M27.8128 33.7016L27.9882 34.719C28.3493 34.6565 28.7092 34.5698 29.057 34.4609L28.748 33.4761C28.4438 33.5711 28.129 33.6469 27.8128 33.7016Z" fill="#242C40"/>
<path d="M24.8102 33.8064H24V34.8387H24.8102V33.8064Z" fill="#242C40"/>
<path d="M26.5806 33.8064H25.8425V34.8387H26.5822C26.6865 34.8387 26.7901 34.8367 26.8939 34.8329L26.8569 33.8014C26.7644 33.8049 26.6719 33.8064 26.5806 33.8064Z" fill="#242C40"/>
<path d="M22.4516 13.1613H21.6404V14.1935H22.4516V13.1613Z" fill="#242C40"/>
<path d="M18.7969 14.684L18.4216 13.7223C18.0817 13.8551 17.7465 14.0118 17.4267 14.189L17.9262 15.0922C18.2069 14.9372 18.4995 14.7999 18.7969 14.684Z" fill="#242C40"/>
<path d="M20.5565 13.2061L20.6633 14.2329C20.3443 14.2659 20.0252 14.3206 19.7145 14.3959L19.472 13.3926C19.8271 13.307 20.192 13.2445 20.5565 13.2061Z" fill="#242C40"/>
<path d="M14.7623 18.6048L13.811 18.2034C13.6686 18.5413 13.5474 18.8914 13.4514 19.244L14.4476 19.5154C14.531 19.2072 14.6368 18.9012 14.7623 18.6048Z" fill="#242C40"/>
<path d="M16.5028 14.7845L17.1174 15.6134C16.8609 15.8039 16.6142 16.0134 16.3846 16.2374L15.6651 15.4967C15.9277 15.2417 16.2094 15.0018 16.5028 14.7845Z" fill="#242C40"/>
<path d="M15.7399 16.9519L14.9289 16.3133C14.7029 16.6003 14.494 16.9052 14.3072 17.2208L15.1958 17.7465C15.3589 17.4705 15.5416 17.2031 15.7399 16.9519Z" fill="#242C40"/>
<path fill-rule="evenodd" clip-rule="evenodd" d="M24 21.9355C24.2848 21.9355 24.5161 22.1668 24.5161 22.4516V30.1449C24.5161 32.6018 23.3332 34.9352 21.3523 36.3881L16.563 39.9005C16.4728 39.967 16.3654 40 16.2581 40C16.1507 40 16.0433 39.967 15.9526 39.9005L11.1633 36.3881C9.18296 34.9352 8 32.6018 8 30.1449V22.4516C8 22.1668 8.23135 21.9355 8.51613 21.9355H8.67566C10.2364 21.9355 11.7568 21.6341 13.1731 21.0519C13.184 20.8077 13.2016 20.563 13.2336 20.3221L14.2566 20.4579C14.255 20.4713 14.2538 20.4847 14.2526 20.4981C14.2514 20.5115 14.2503 20.5249 14.2487 20.5383C14.7046 20.2951 15.1499 20.0285 15.5759 19.7238L15.9582 19.4509C16.1379 19.3223 16.3788 19.3223 16.5585 19.4509L16.941 19.7243C18.9662 21.1711 21.3523 21.9355 23.8405 21.9355H24ZM12.129 35.8158L16.2581 38.8438L20.3871 35.8158L20.9032 35.3974V34.0645C20.9032 32.5624 19.8556 31.3049 18.4511 30.983C17.8156 31.3821 17.0638 31.6129 16.2581 31.6129C15.4598 31.6129 14.7145 31.3864 14.0828 30.9941C12.7019 31.3329 11.6774 32.5791 11.6774 34.0645V35.4497L12.129 35.8158ZM23.4839 30.1449C23.4839 31.5754 23.0188 32.9559 22.1935 34.0901V34.0645C22.1935 32.2455 21.1026 30.6814 19.5393 29.9907C20.0711 29.2956 20.3871 28.4266 20.3871 27.4839C20.3871 25.2035 18.5385 23.3548 16.2581 23.3548C13.9777 23.3548 12.129 25.2035 12.129 27.4839C12.129 28.4364 12.4516 29.3136 12.9934 30.0122C11.4558 30.7135 10.3871 32.2642 10.3871 34.0645V34.1773C9.52157 33.0271 9.03226 31.6123 9.03226 30.1449V22.9632C11.6084 22.8934 14.0708 22.0675 16.1754 20.5648L16.2581 20.5053L16.3407 20.5648C18.4453 22.0675 20.9078 22.8934 23.4839 22.9632V30.1449ZM19.0968 27.4839C19.0968 28.3402 18.7176 29.1081 18.1179 29.6285C17.6156 30.0645 16.8387 30.3226 16.2581 30.3226H16.2579C15.5978 30.3225 14.9904 30.0972 14.5083 29.7193C14.473 29.6916 14.4383 29.6631 14.4043 29.6338C13.8011 29.1132 13.4194 28.3431 13.4194 27.4839C13.4194 25.9161 14.6903 24.6452 16.2581 24.6452C17.8258 24.6452 19.0968 25.9161 19.0968 27.4839Z" fill="#242C40"/>
</svg>
