<svg width="48" height="48" viewBox="0 0 48 48" fill="none" xmlns="http://www.w3.org/2000/svg">
<rect width="48" height="48" rx="4" fill="#D8B683" fill-opacity="0.3"/>
<path fill-rule="evenodd" clip-rule="evenodd" d="M33.4065 13.5247C34.9823 14.1371 36.6992 14.6424 38.5094 15.0266C38.7981 15.0879 39.0046 15.3428 39.0046 15.638V23.775C39.0046 25.2128 38.4548 26.9285 37.3702 28.8743C36.8471 29.8128 35.4636 31.7742 35.4493 31.7914C34.8618 32.5683 34.2171 33.3412 33.5273 34.0933C30.9081 36.9493 27.1336 40.001 24.3949 40.001C21.6553 40.001 17.8802 36.9493 15.2607 34.0935C13.703 32.3951 12.374 30.5903 11.4176 28.8745C10.3331 26.9287 9.7832 25.2131 9.7832 23.7752V15.6381C9.7832 15.3431 9.98952 15.0882 10.2781 15.0268C17.4654 13.4966 20.9101 10.6563 22.9684 8.95923L22.9685 8.95916C23.371 8.62722 23.7187 8.34053 24.0319 8.11716C24.249 7.96228 24.5406 7.96222 24.7577 8.11716C25.071 8.34059 25.419 8.62778 25.8219 8.96028C26.5308 9.54528 27.4131 10.2733 28.5737 11.0423C28.8614 11.2329 28.9401 11.6207 28.7495 11.9085C28.5589 12.1962 28.1711 12.2749 27.8832 12.0843C26.668 11.2792 25.7577 10.5279 25.0263 9.92429C24.797 9.73504 24.5862 9.56116 24.3947 9.40966C24.2032 9.56097 23.9927 9.73454 23.7636 9.92347C21.8027 11.5404 18.1903 14.5189 11.0331 16.1405V23.775C11.0331 25.2766 11.8186 27.2754 13.1952 29.4155V28.2271C13.1952 25.8704 14.4715 24.7068 15.6943 24.0429C15.3262 23.4386 15.1138 22.7294 15.1138 21.9716C15.1138 19.7699 16.905 17.9787 19.1067 17.9787C21.3092 17.9787 23.1012 19.7699 23.1012 21.9716C23.1012 22.729 22.889 23.4379 22.5211 24.0419C23.2159 24.4156 23.9126 24.9389 24.3942 25.7488C24.8764 24.9383 25.5733 24.4149 26.2679 24.0414C25.9003 23.4374 25.6884 22.7288 25.6884 21.9716C25.6884 19.7699 27.4796 17.9787 29.6812 17.9787C31.8838 17.9787 33.6758 19.7699 33.6758 21.9716C33.6758 22.7297 33.4633 23.4391 33.0947 24.0435C34.318 24.7077 35.5944 25.8714 35.5944 28.2271V29.4128C36.9698 27.2736 37.7546 25.2759 37.7546 23.775V16.1408C36.0601 15.7575 34.4473 15.2702 32.9538 14.6899C32.6321 14.5649 32.4726 14.2027 32.5976 13.8809C32.7226 13.5592 33.0849 13.3997 33.4065 13.5247ZM32.4258 21.9716C32.4258 20.4591 31.1946 19.2287 29.6812 19.2287C28.1688 19.2287 26.9384 20.4591 26.9384 21.9716C26.9384 23.484 28.1689 24.7144 29.6812 24.7144C31.1946 24.7144 32.4258 23.484 32.4258 21.9716ZM26.2855 29.5045C26.2855 28.462 25.4374 27.6138 24.3949 27.6138C23.3523 27.6138 22.5042 28.462 22.5042 29.5045C22.5042 30.548 23.3523 31.3969 24.3949 31.3969C25.4374 31.3969 26.2855 30.548 26.2855 29.5045ZM21.8512 21.9716C21.8512 20.4591 20.62 19.2287 19.1067 19.2287C17.5943 19.2287 16.3638 20.4591 16.3638 21.9716C16.3638 23.484 17.5943 24.7144 19.1067 24.7144C20.62 24.7144 21.8512 23.484 21.8512 21.9716ZM19.821 36.5985V34.1763C19.821 32.4235 20.7218 31.519 21.6289 30.9917C21.39 30.5487 21.2542 30.0422 21.2542 29.5045C21.2542 28.1223 22.152 26.9467 23.3947 26.528C23.004 25.7865 22.351 25.3414 21.6847 25.018C20.9884 25.6077 20.0887 25.9644 19.1067 25.9644C18.1248 25.9644 17.2253 25.6075 16.5292 25.0175C15.4057 25.5614 14.4453 26.3819 14.4453 28.2271V31.1849C14.9734 31.872 15.5537 32.5635 16.182 33.2485C17.386 34.5611 18.6345 35.7012 19.821 36.5985ZM24.3949 38.751C25.2617 38.751 26.4239 38.2862 27.7186 37.4675H27.7187V34.1763C27.7187 32.9352 27.0938 32.3526 26.3416 31.9678C25.8059 32.3924 25.1297 32.647 24.3949 32.647C23.6599 32.647 22.9835 32.3924 22.4479 31.9676C21.6957 32.3518 21.071 32.9341 21.071 34.1763V37.468C22.3657 38.2863 23.5279 38.751 24.3949 38.751ZM32.6061 33.2485C33.2349 32.5628 33.8158 31.8705 34.3443 31.1827V28.2271C34.3443 26.3828 33.3835 25.5621 32.2594 25.0179C31.5631 25.6076 30.6632 25.9644 29.6812 25.9644C28.6995 25.9644 27.7999 25.6075 27.1039 25.0176C26.4381 25.3408 25.7855 25.7858 25.3939 26.5276C26.6372 26.9461 27.5355 28.122 27.5355 29.5045C27.5355 30.0424 27.3996 30.549 27.1606 30.9921C28.0677 31.5199 28.9687 32.4246 28.9687 34.1763V36.5977C30.1546 35.7005 31.4026 34.5607 32.6061 33.2485Z" fill="#242C40"/>
<path d="M30.346 13.5219L30.3424 13.5201C30.0336 13.3658 29.9085 12.9903 30.0629 12.6815C30.2172 12.3728 30.5927 12.2476 30.9014 12.402C31.2101 12.5564 31.3371 12.9327 31.1827 13.2414C31.0731 13.4607 30.8529 13.5878 30.6239 13.5878C30.5304 13.5878 30.4355 13.5666 30.346 13.5219Z" fill="#242C40"/>
</svg>
