<svg width="48" height="48" viewBox="0 0 48 48" fill="none" xmlns="http://www.w3.org/2000/svg">
<rect width="48" height="48" rx="4" fill="#D8B683" fill-opacity="0.3"/>
<path d="M33.6 25.0667H29.3333V26.1333H33.6V25.0667Z" fill="#242C40"/>
<path d="M17.0667 25.0667H28.2667V26.1333H17.0667V25.0667Z" fill="#242C40"/>
<path d="M33.5999 27.2H22.9333V28.2667H33.5999V27.2Z" fill="#242C40"/>
<path d="M17.0667 27.2H21.8667V28.2667H17.0667V27.2Z" fill="#242C40"/>
<path d="M33.6 31.4666H26.6667V32.5333H33.6V31.4666Z" fill="#242C40"/>
<path d="M17.0667 31.4666H25.6001V32.5333H17.0667V31.4666Z" fill="#242C40"/>
<path d="M26.6666 13.3867L25.5999 13.2799C25.4932 14.1867 25.0132 15.0401 24.2666 15.5734L24.8533 16.4799C25.8666 15.7333 26.5598 14.6133 26.6666 13.3867Z" fill="#242C40"/>
<path fill-rule="evenodd" clip-rule="evenodd" d="M25.0667 19.3067L24.4266 18.8799C22.5068 17.6 21.3333 15.4132 21.3333 13.12V11.3599L25.0667 10.1333L28.8 11.3599V13.12C28.8 15.4132 27.6266 17.6 25.7068 18.8799L25.0667 19.3067ZM25.0667 11.2L22.4 12.1067V13.0666C22.4 15.0401 23.3599 16.9067 25.0133 17.9734L25.0667 18.0265H25.12C26.7734 16.9067 27.7333 15.0932 27.7333 13.12V12.1067L25.0667 11.2Z" fill="#242C40"/>
<path d="M33.5999 29.3333H20.2666V30.4H33.5999V29.3333Z" fill="#242C40"/>
<path d="M17.0667 29.3333H19.2001V30.4H17.0667V29.3333Z" fill="#242C40"/>
<path d="M33.5999 22.9333H22.9333V24H33.5999V22.9333Z" fill="#242C40"/>
<path d="M17.0667 22.9333H21.8667V24H17.0667V22.9333Z" fill="#242C40"/>
<path d="M28.8 20.2667H21.3333V21.3334H28.8V20.2667Z" fill="#242C40"/>
<path fill-rule="evenodd" clip-rule="evenodd" d="M33.0667 8C34.5599 8 35.7333 9.17344 35.7333 10.6667V34.6667H38.4V37.3333C38.4 38.8266 37.2266 40 35.7333 40H17.6C16.1068 40 14.9333 38.8266 14.9333 37.3333V14.9333H10.6667V10.6667C10.6667 9.17344 11.8401 8 13.3333 8H33.0667ZM11.7333 10.6667V13.8667H14.9333V10.6667C14.9333 9.7599 14.2401 9.06667 13.3333 9.06667C12.4266 9.06667 11.7333 9.7599 11.7333 10.6667ZM16 10.6667V37.3333C16 38.2401 16.6932 38.9333 17.6 38.9333C18.5068 38.9333 19.2 38.2401 19.2 37.3333V34.6667H34.6667V10.6667C34.6667 9.7599 33.9734 9.06667 33.0667 9.06667H15.4667C15.7867 9.54661 16 10.0799 16 10.6667ZM37.3333 37.3333V35.7333H20.2667V37.3333C20.2667 37.9201 20.1068 38.4534 19.7333 38.9333H35.7333C36.6401 38.9333 37.3333 38.2401 37.3333 37.3333Z" fill="#242C40"/>
</svg>
