<svg width="48" height="48" viewBox="0 0 48 48" fill="none" xmlns="http://www.w3.org/2000/svg">
<rect width="48" height="48" rx="4" fill="#D8B683" fill-opacity="0.3"/>
<path d="M38.4 8H33.0667C32.183 8 31.4667 8.71634 31.4667 9.6V14.9333C31.4667 15.817 32.183 16.5333 33.0667 16.5333H34.6667V17.0667C34.6667 17.3612 34.4279 17.6 34.1333 17.6H25.0667C24.7721 17.6 24.5333 17.3612 24.5333 17.0667V16.5333H26.6667C27.5503 16.5333 28.2667 15.817 28.2667 14.9333V9.6C28.2667 8.71634 27.5503 8 26.6667 8H21.3333C20.4497 8 19.7333 8.71634 19.7333 9.6V14.9333C19.7333 15.817 20.4497 16.5333 21.3333 16.5333H23.4667V17.0667C23.4667 17.3612 23.2279 17.6 22.9333 17.6H13.3333C13.0388 17.6 12.8 17.3612 12.8 17.0667V16.5333H14.9333C15.817 16.5333 16.5333 15.817 16.5333 14.9333V9.6C16.5333 8.71634 15.817 8 14.9333 8H9.6C8.71634 8 8 8.71634 8 9.6V14.9333C8 15.817 8.71634 16.5333 9.6 16.5333H11.7333V17.0667C11.7333 17.9503 12.4497 18.6667 13.3333 18.6667H17.6V19.7333H15.4667C14.583 19.7333 13.8667 20.4497 13.8667 21.3333V26.6667C13.8667 27.5503 14.583 28.2667 15.4667 28.2667H17.6V28.8C17.6 29.6837 18.3163 30.4 19.2 30.4H23.4667V31.4667H21.3333C20.4497 31.4667 19.7333 32.183 19.7333 33.0667V38.4C19.7333 39.2837 20.4497 40 21.3333 40H26.6667C27.5503 40 28.2667 39.2837 28.2667 38.4V33.0667C28.2667 32.183 27.5503 31.4667 26.6667 31.4667H24.5333V30.4H28.8C29.6837 30.4 30.4 29.6837 30.4 28.8V28.2667H32.5333C33.417 28.2667 34.1333 27.5503 34.1333 26.6667V21.3333C34.1333 20.4497 33.417 19.7333 32.5333 19.7333H30.4V18.6667H34.1333C35.017 18.6667 35.7333 17.9503 35.7333 17.0667V16.5333H38.4C39.2837 16.5333 40 15.817 40 14.9333V9.6C40 8.71634 39.2837 8 38.4 8ZM23.4667 11.7333C23.4667 11.4388 23.7054 11.2 24 11.2C24.2946 11.2 24.5333 11.4388 24.5333 11.7333C24.5333 12.0279 24.2946 12.2667 24 12.2667C23.7054 12.2667 23.4667 12.0279 23.4667 11.7333ZM20.8 14.9333V9.6C20.8 9.30545 21.0388 9.06667 21.3333 9.06667H26.6667C26.9612 9.06667 27.2 9.30545 27.2 9.6V14.9333C27.2 15.2279 26.9612 15.4667 26.6667 15.4667H26.1333V14.4C26.1316 13.7273 25.8113 13.0952 25.2699 12.696C25.7699 12.0389 25.686 11.1088 25.0765 10.5517C24.4669 9.99467 23.5331 9.99467 22.9235 10.5517C22.314 11.1088 22.2301 12.0389 22.7301 12.696C22.1887 13.0952 21.8684 13.7273 21.8667 14.4V15.4667H21.3333C21.0388 15.4667 20.8 15.2279 20.8 14.9333ZM22.9333 14.4C22.9333 13.8109 23.4109 13.3333 24 13.3333C24.5891 13.3333 25.0667 13.8109 25.0667 14.4V15.4667H22.9333V14.4ZM11.7333 11.7333C11.7333 11.4388 11.9721 11.2 12.2667 11.2C12.5612 11.2 12.8 11.4388 12.8 11.7333C12.8 12.0279 12.5612 12.2667 12.2667 12.2667C11.9721 12.2667 11.7333 12.0279 11.7333 11.7333ZM9.06667 14.9333V9.6C9.06667 9.30545 9.30545 9.06667 9.6 9.06667H14.9333C15.2279 9.06667 15.4667 9.30545 15.4667 9.6V14.9333C15.4667 15.2279 15.2279 15.4667 14.9333 15.4667H14.4V14.4C14.3983 13.7273 14.078 13.0952 13.5365 12.696C14.0366 12.0389 13.9527 11.1088 13.3432 10.5517C12.7336 9.99467 11.7997 9.99467 11.1902 10.5517C10.5806 11.1088 10.4967 12.0389 10.9968 12.696C10.4553 13.0952 10.135 13.7273 10.1333 14.4V15.4667H9.6C9.30545 15.4667 9.06667 15.2279 9.06667 14.9333ZM11.2 14.4C11.2 13.8109 11.6776 13.3333 12.2667 13.3333C12.8558 13.3333 13.3333 13.8109 13.3333 14.4V15.4667H11.2V14.4ZM23.4667 35.2C23.4667 34.9054 23.7054 34.6667 24 34.6667C24.2946 34.6667 24.5333 34.9054 24.5333 35.2C24.5333 35.4946 24.2946 35.7333 24 35.7333C23.7054 35.7333 23.4667 35.4946 23.4667 35.2ZM22.9333 38.9333V37.8667C22.9333 37.2776 23.4109 36.8 24 36.8C24.5891 36.8 25.0667 37.2776 25.0667 37.8667V38.9333H22.9333ZM27.2 33.0667V38.4C27.2 38.6946 26.9612 38.9333 26.6667 38.9333H26.1333V37.8667C26.1316 37.194 25.8113 36.5619 25.2699 36.1627C25.7699 35.5055 25.686 34.5755 25.0765 34.0184C24.4669 33.4613 23.5331 33.4613 22.9235 34.0184C22.314 34.5755 22.2301 35.5055 22.7301 36.1627C22.1887 36.5619 21.8684 37.194 21.8667 37.8667V38.9333H21.3333C21.0388 38.9333 20.8 38.6946 20.8 38.4V33.0667C20.8 32.7721 21.0388 32.5333 21.3333 32.5333H26.6667C26.9612 32.5333 27.2 32.7721 27.2 33.0667ZM14.9333 26.6667V21.3333C14.9333 21.0388 15.1721 20.8 15.4667 20.8H20.8C21.0946 20.8 21.3333 21.0388 21.3333 21.3333V26.6667C21.3333 26.9612 21.0946 27.2 20.8 27.2H20.2667V26.1333C20.265 25.4606 19.9447 24.8285 19.4032 24.4293C19.9033 23.7722 19.8194 22.8421 19.2098 22.2851C18.6003 21.728 17.6664 21.728 17.0568 22.2851C16.4473 22.8421 16.3634 23.7722 16.8635 24.4293C16.322 24.8285 16.0017 25.4606 16 26.1333V27.2H15.4667C15.1721 27.2 14.9333 26.9612 14.9333 26.6667ZM17.6 23.4667C17.6 23.1721 17.8388 22.9333 18.1333 22.9333C18.4279 22.9333 18.6667 23.1721 18.6667 23.4667C18.6667 23.7612 18.4279 24 18.1333 24C17.8388 24 17.6 23.7612 17.6 23.4667ZM17.0667 26.1333C17.0667 25.5442 17.5442 25.0667 18.1333 25.0667C18.7224 25.0667 19.2 25.5442 19.2 26.1333V27.2H17.0667V26.1333ZM28.8 27.2V26.1333C28.8 25.5442 29.2776 25.0667 29.8667 25.0667C30.4558 25.0667 30.9333 25.5442 30.9333 26.1333V27.2H28.8ZM29.3333 23.4667C29.3333 23.1721 29.5721 22.9333 29.8667 22.9333C30.1612 22.9333 30.4 23.1721 30.4 23.4667C30.4 23.7612 30.1612 24 29.8667 24C29.5721 24 29.3333 23.7612 29.3333 23.4667ZM33.0667 21.3333V26.6667C33.0667 26.9612 32.8279 27.2 32.5333 27.2H32V26.1333C31.9983 25.4606 31.678 24.8285 31.1365 24.4293C31.6366 23.7722 31.5527 22.8421 30.9432 22.2851C30.3336 21.728 29.3997 21.728 28.7902 22.2851C28.1806 22.8421 28.0967 23.7722 28.5968 24.4293C28.0553 24.8285 27.735 25.4606 27.7333 26.1333V27.2H27.2C26.9054 27.2 26.6667 26.9612 26.6667 26.6667V21.3333C26.6667 21.0388 26.9054 20.8 27.2 20.8H32.5333C32.8279 20.8 33.0667 21.0388 33.0667 21.3333ZM29.3333 19.7333H27.2C26.3163 19.7333 25.6 20.4497 25.6 21.3333V26.6667C25.6 27.5503 26.3163 28.2667 27.2 28.2667H29.3333V28.8C29.3333 29.0946 29.0946 29.3333 28.8 29.3333H19.2C18.9054 29.3333 18.6667 29.0946 18.6667 28.8V28.2667H20.8C21.6837 28.2667 22.4 27.5503 22.4 26.6667V21.3333C22.4 20.4497 21.6837 19.7333 20.8 19.7333H18.6667V18.6667H22.9333C23.3282 18.6653 23.7084 18.517 24 18.2507C24.2916 18.517 24.6718 18.6653 25.0667 18.6667H29.3333V19.7333ZM35.2 11.7333C35.2 11.4388 35.4388 11.2 35.7333 11.2C36.0279 11.2 36.2667 11.4388 36.2667 11.7333C36.2667 12.0279 36.0279 12.2667 35.7333 12.2667C35.4388 12.2667 35.2 12.0279 35.2 11.7333ZM34.6667 15.4667V14.4C34.6667 13.8109 35.1442 13.3333 35.7333 13.3333C36.3224 13.3333 36.8 13.8109 36.8 14.4V15.4667H34.6667ZM38.9333 14.9333C38.9333 15.2279 38.6946 15.4667 38.4 15.4667H37.8667V14.4C37.865 13.7273 37.5447 13.0952 37.0032 12.696C37.5033 12.0389 37.4194 11.1088 36.8098 10.5517C36.2003 9.99467 35.2664 9.99467 34.6568 10.5517C34.0473 11.1088 33.9634 12.0389 34.4635 12.696C33.922 13.0952 33.6017 13.7273 33.6 14.4V15.4667H33.0667C32.7721 15.4667 32.5333 15.2279 32.5333 14.9333V9.6C32.5333 9.30545 32.7721 9.06667 33.0667 9.06667H38.4C38.6946 9.06667 38.9333 9.30545 38.9333 9.6V14.9333Z" fill="#242C40"/>
</svg>
