<svg xmlns="http://www.w3.org/2000/svg" version="1.1" xmlns:xlink="http://www.w3.org/1999/xlink" xmlns:svgjs="http://svgjs.com/svgjs" width="20" height="11"><svg width="20" height="11" viewBox="0 0 20 11" fill="none" xmlns="http://www.w3.org/2000/svg">
<path d="M10.4067 0.742676C10.3392 1.75736 10.3054 2.66235 10.3054 3.45765C10.3054 3.87815 10.3199 4.20724 10.3488 4.44491H10.0158C9.69726 3.2474 9.28702 2.38354 8.78508 1.85335C8.28314 1.32315 7.74258 1.05805 7.16342 1.05805H7.14894V8.90131C7.14894 9.28524 7.18755 9.56405 7.26477 9.73774C7.35164 9.91142 7.50126 10.0303 7.71362 10.0942C7.93564 10.1491 8.28314 10.1765 8.75612 10.1765V10.4508C7.39508 10.4233 6.33811 10.4096 5.58519 10.4096C4.89985 10.4096 3.90561 10.4233 2.60249 10.4508V10.1765C3.07548 10.1765 3.41815 10.1491 3.63051 10.0942C3.85252 10.0303 4.00214 9.91142 4.07936 9.73774C4.16624 9.56405 4.20968 9.28524 4.20968 8.90131V1.05805H4.1952C3.60638 1.05805 3.061 1.32315 2.55906 1.85335C2.06677 2.3744 1.66135 3.23826 1.34281 4.44491H1.00979C1.03875 4.20724 1.05323 3.87815 1.05323 3.45765C1.05323 2.66235 1.01944 1.75736 0.951874 0.742676C1.86888 0.770099 3.44711 0.783811 5.68655 0.783811C7.91633 0.783811 9.48973 0.770099 10.4067 0.742676Z" fill="#242C40"></path>
<path d="M16.2884 1.01692C15.9409 1.0352 15.6851 1.07176 15.521 1.12661C15.3666 1.18146 15.2604 1.28658 15.2025 1.44199C15.1446 1.59739 15.1156 1.84877 15.1156 2.19615V9.27153C15.1156 9.52748 15.1349 9.71488 15.1735 9.83372C15.2121 9.95256 15.2797 10.0348 15.3762 10.0805C15.4728 10.1171 15.632 10.1354 15.8541 10.1354H16.3319C16.6697 10.1354 17.0365 9.97541 17.4323 9.65546C17.828 9.33552 18.1852 8.91502 18.5037 8.39396C18.8223 7.86376 19.0346 7.31529 19.1408 6.74852H19.4738C19.4449 7.07761 19.4304 7.49811 19.4304 8.01003C19.4304 8.99729 19.4642 9.81087 19.5318 10.4508C18.8754 10.4233 17.7701 10.4096 16.216 10.4096C13.9573 10.4096 12.2681 10.4233 11.1483 10.4508V10.1765C11.4572 10.1582 11.6792 10.1217 11.8144 10.0668C11.9592 10.012 12.0557 9.90685 12.104 9.75145C12.1522 9.59604 12.1764 9.34466 12.1764 8.99729V2.19615C12.1764 1.84877 12.1474 1.59739 12.0895 1.44199C12.0412 1.28658 11.9495 1.18146 11.8144 1.12661C11.6792 1.07176 11.4572 1.0352 11.1483 1.01692V0.742676C11.6985 0.770099 12.5576 0.783811 13.7256 0.783811C14.8357 0.783811 15.69 0.770099 16.2884 0.742676V1.01692Z" fill="#242C40"></path>
</svg></svg>