<?xml version="1.0" standalone="no"?>
<!DOCTYPE svg PUBLIC "-//W3C//DTD SVG 20010904//EN"
 "http://www.w3.org/TR/2001/REC-SVG-20010904/DTD/svg10.dtd">
<svg version="1.0" xmlns="http://www.w3.org/2000/svg"
 width="230.000000pt" height="236.000000pt" viewBox="0 0 230.000000 236.000000"
 preserveAspectRatio="xMidYMid meet">

<g transform="translate(0.000000,236.000000) scale(0.100000,-0.100000)"
fill="#000000" stroke="none">
<path d="M100 2251 c0 -6 20 -11 48 -11 62 0 113 -26 134 -70 17 -32 18 -84
18 -637 l0 -603 120 0 120 0 0 260 0 260 68 0 67 0 68 -113 c37 -61 106 -177
155 -257 l87 -145 133 -3 c72 -1 132 0 132 2 0 3 -26 47 -59 98 -57 91 -148
236 -224 360 -21 34 -36 67 -33 73 2 6 23 17 47 24 91 27 195 114 238 199 31
60 43 159 31 238 -26 164 -127 259 -325 309 -59 15 -131 18 -447 22 -269 4
-378 2 -378 -6z m744 -41 c97 -50 143 -145 153 -315 13 -226 -48 -367 -177
-411 -20 -7 -91 -14 -156 -15 l-119 -1 -3 387 -2 387 128 -3 c113 -4 133 -7
176 -29z"/>
<path d="M1675 1609 c-83 -11 -195 -61 -252 -113 -131 -118 -141 -401 -19
-538 l24 -27 199 -1 c109 0 208 -1 221 0 15 0 -20 22 -89 56 -179 90 -243 164
-255 295 -18 184 73 303 240 316 83 7 154 -16 195 -62 36 -41 67 -136 77 -233
l6 -71 32 6 c57 10 116 44 132 76 66 127 -76 269 -296 297 -95 11 -116 11
-215 -1z"/>
<path d="M190 695 c0 -37 4 -65 10 -65 6 0 10 28 10 65 0 37 -4 65 -10 65 -6
0 -10 -28 -10 -65z"/>
<path d="M255 730 c0 -18 4 -26 13 -23 6 3 12 13 12 23 0 10 -6 20 -12 23 -9
3 -13 -5 -13 -23z"/>
<path d="M330 695 c0 -37 4 -65 10 -65 6 0 10 28 10 65 0 37 -4 65 -10 65 -6
0 -10 -28 -10 -65z"/>
<path d="M456 745 c-5 -13 3 -27 30 -51 23 -21 34 -39 30 -49 -3 -8 -1 -15 3
-15 12 0 21 27 15 44 -3 8 -17 22 -30 31 -14 9 -29 26 -33 37 -7 20 -8 20 -15
3z"/>
<path d="M580 695 c0 -37 4 -65 10 -65 6 0 10 28 10 65 0 37 -4 65 -10 65 -6
0 -10 -28 -10 -65z"/>
<path d="M727 732 c32 -51 83 -107 83 -93 0 18 -79 121 -92 121 -6 0 -2 -13 9
-28z"/>
<path d="M862 695 c0 -36 4 -65 9 -65 5 0 9 29 9 65 0 36 -4 65 -9 65 -5 0 -9
-29 -9 -65z"/>
<path d="M1024 695 c1 -36 5 -65 11 -65 6 0 9 26 7 65 -5 85 -19 85 -18 0z"/>
<path d="M1435 746 c-6 -15 -1 -26 22 -46 17 -15 36 -36 42 -46 10 -18 10 -18
11 3 0 12 -12 31 -27 43 -16 12 -31 31 -34 43 -6 21 -7 21 -14 3z"/>
<path d="M1560 695 c0 -37 4 -65 10 -65 6 0 10 28 10 65 0 37 -4 65 -10 65 -6
0 -10 -28 -10 -65z"/>
<path d="M1640 695 c0 -37 4 -65 10 -65 6 0 10 28 10 65 0 37 -4 65 -10 65 -6
0 -10 -28 -10 -65z"/>
<path d="M1759 738 c30 -75 50 -112 50 -91 1 28 -35 113 -48 113 -7 0 -7 -8
-2 -22z"/>
<path d="M1940 751 c0 -25 33 -121 43 -121 5 0 6 12 2 27 -9 38 -44 111 -45
94z"/>
<path d="M954 697 c0 -51 2 -55 13 -34 16 29 16 49 -1 72 -12 16 -13 12 -12
-38z"/>
<path d="M1295 715 c-40 -14 -40 -14 -5 -9 19 4 39 10 45 15 11 11 10 11 -40
-6z"/>
<path d="M1190 673 c0 -28 28 -43 77 -41 l38 1 -45 6 c-34 5 -47 12 -57 31
-12 24 -13 24 -13 3z"/>
<path d="M256 658 c8 -28 12 -33 20 -25 9 8 -6 47 -17 47 -6 0 -7 -10 -3 -22z"/>
<path d="M1325 460 c-24 -25 -30 -41 -33 -90 -6 -82 16 -136 79 -195 83 -78
199 -115 362 -115 305 0 503 140 524 373 l6 57 -105 0 -105 0 10 -52 c13 -67
-5 -177 -39 -235 -47 -82 -142 -127 -265 -127 -178 -1 -278 112 -296 337 l-6
77 -52 0 c-44 0 -55 -4 -80 -30z"/>
<path d="M318 323 c7 -3 16 -2 19 1 4 3 -2 6 -13 5 -11 0 -14 -3 -6 -6z"/>
</g>
</svg>
