<svg width="143" height="40" viewBox="0 0 143 40" fill="none" xmlns="http://www.w3.org/2000/svg">
<path d="M43.2559 8.88867H31.4805C29.1724 8.88867 27.6842 10.5564 27.6842 10.5564C27.6842 10.5564 26.3877 8.88867 23.8878 8.88867H12.1125V26.4788H25.2891L27.6842 28.3331L30.0793 26.4788H43.2559V8.88867Z" fill="white"/>
<path fill-rule="evenodd" clip-rule="evenodd" d="M9.67938 11.8013H10.6526V28.305H24.9352L27.5015 30.353L26.8936 31.1111L24.5938 29.2758H9.67938V11.8013Z" fill="#A58656"/>
<path d="M27.4067 13.7432C27.3392 14.7579 27.3054 15.6628 27.3054 16.4581C27.3054 16.8786 27.3199 17.2077 27.3488 17.4454H27.0158C26.6973 16.2479 26.287 15.384 25.7851 14.8538C25.2831 14.3236 24.7426 14.0585 24.1634 14.0585H24.1489V21.9018C24.1489 22.2857 24.1876 22.5645 24.2648 22.7382C24.3516 22.9119 24.5013 23.0307 24.7136 23.0947C24.9356 23.1496 25.2831 23.177 25.7561 23.177V23.4512C24.3951 23.4238 23.3381 23.4101 22.5852 23.4101C21.8998 23.4101 20.9056 23.4238 19.6025 23.4512V23.177C20.0755 23.177 20.4182 23.1496 20.6305 23.0947C20.8525 23.0307 21.0021 22.9119 21.0794 22.7382C21.1662 22.5645 21.2097 22.2857 21.2097 21.9018V14.0585H21.1952C20.6064 14.0585 20.061 14.3236 19.5591 14.8538C19.0668 15.3749 18.6614 16.2387 18.3428 17.4454H18.0098C18.0387 17.2077 18.0532 16.8786 18.0532 16.4581C18.0532 15.6628 18.0194 14.7579 17.9519 13.7432C18.8689 13.7706 20.4471 13.7843 22.6865 13.7843C24.9163 13.7843 26.4897 13.7706 27.4067 13.7432Z" fill="#242C40"/>
<path d="M33.2884 14.0174C32.9409 14.0357 32.6851 14.0723 32.521 14.1271C32.3666 14.1819 32.2604 14.2871 32.2025 14.4425C32.1446 14.5979 32.1156 14.8493 32.1156 15.1966V22.272C32.1156 22.528 32.1349 22.7154 32.1735 22.8342C32.2122 22.953 32.2797 23.0353 32.3763 23.081C32.4728 23.1176 32.632 23.1359 32.8541 23.1359H33.3319C33.6697 23.1359 34.0365 22.9759 34.4323 22.656C34.828 22.336 35.1852 21.9155 35.5037 21.3944C35.8223 20.8643 36.0346 20.3158 36.1408 19.749H36.4738C36.4449 20.0781 36.4304 20.4986 36.4304 21.0105C36.4304 21.9978 36.4642 22.8114 36.5318 23.4512C35.8754 23.4238 34.7701 23.4101 33.216 23.4101C30.9573 23.4101 29.2681 23.4238 28.1483 23.4512V23.177C28.4572 23.1587 28.6792 23.1222 28.8144 23.0673C28.9592 23.0125 29.0557 22.9073 29.104 22.7519C29.1522 22.5965 29.1764 22.3451 29.1764 21.9978V15.1966C29.1764 14.8493 29.1474 14.5979 29.0895 14.4425C29.0412 14.2871 28.9495 14.1819 28.8144 14.1271C28.6792 14.0723 28.4572 14.0357 28.1483 14.0174V13.7432C28.6986 13.7706 29.5576 13.7843 30.7256 13.7843C31.8357 13.7843 32.69 13.7706 33.2884 13.7432V14.0174Z" fill="#242C40"/>
<path d="M58.4542 13.1065C58.3866 14.1754 58.3528 15.1287 58.3528 15.9665C58.3528 16.4095 58.3673 16.7561 58.3963 17.0065H58.0632C57.7447 15.745 57.3344 14.835 56.8324 14.2765C56.3304 13.718 55.7898 13.4387 55.2106 13.4387H55.1961V21.7009C55.1961 22.1054 55.2347 22.3991 55.3119 22.582C55.3988 22.765 55.5484 22.8902 55.7608 22.9576C55.9829 23.0154 56.3304 23.0443 56.8034 23.0443V23.3332C55.4423 23.3043 54.3852 23.2898 53.6322 23.2898C52.9468 23.2898 51.9525 23.3043 50.6492 23.3332V23.0443C51.1222 23.0443 51.4649 23.0154 51.6773 22.9576C51.8994 22.8902 52.049 22.765 52.1262 22.582C52.2131 22.3991 52.2565 22.1054 52.2565 21.7009V13.4387H52.2421C51.6532 13.4387 51.1078 13.718 50.6058 14.2765C50.1134 14.8254 49.708 15.7354 49.3894 17.0065H49.0564C49.0853 16.7561 49.0998 16.4095 49.0998 15.9665C49.0998 15.1287 49.066 14.1754 48.9984 13.1065C49.9155 13.1354 51.4939 13.1498 53.7336 13.1498C55.9636 13.1498 57.5371 13.1354 58.4542 13.1065Z" fill="white"/>
<path d="M62.3836 16.7176C62.818 15.9954 63.5855 15.6343 64.686 15.6343C65.4583 15.6343 66.0037 15.8269 66.3223 16.212C66.4671 16.3854 66.5733 16.6213 66.6409 16.9198C66.7085 17.2087 66.7423 17.5939 66.7423 18.0754V21.9898C66.7423 22.3846 66.8002 22.6591 66.916 22.8132C67.0415 22.9576 67.2539 23.0298 67.5532 23.0298V23.3332C66.5106 23.2946 65.8348 23.2754 65.5259 23.2754C65.1977 23.2754 64.5123 23.2946 63.4697 23.3332V23.0298C63.7207 23.0298 63.8944 22.9576 63.991 22.8132C64.0875 22.6591 64.1358 22.3846 64.1358 21.9898V17.2954C64.1358 16.9872 64.0778 16.7609 63.962 16.6165C63.8558 16.4624 63.6772 16.3854 63.4262 16.3854C63.1463 16.3854 62.9001 16.4865 62.6877 16.6887C62.485 16.8813 62.3836 17.1269 62.3836 17.4254V21.9898C62.3836 22.3846 62.4319 22.6591 62.5284 22.8132C62.625 22.9576 62.7987 23.0298 63.0497 23.0298V23.3332C62.0844 23.2946 61.4472 23.2754 61.1383 23.2754C60.8101 23.2754 60.086 23.2946 58.9662 23.3332V23.0298C59.2655 23.0298 59.473 22.9576 59.5889 22.8132C59.7144 22.6591 59.7771 22.3846 59.7771 21.9898V13.7709C59.7771 13.328 59.7144 13.0054 59.5889 12.8032C59.473 12.6009 59.2655 12.4998 58.9662 12.4998V12.1965C59.2655 12.2254 59.5647 12.2398 59.864 12.2398C60.868 12.2398 61.7079 12.1724 62.3836 12.0376V16.7176Z" fill="white"/>
<path d="M69.9 23.4343C69.2822 23.4343 68.814 23.2706 68.4954 22.9432C68.1865 22.6061 68.032 22.1872 68.032 21.6865C68.032 21.2532 68.1431 20.8969 68.3651 20.6176C68.5968 20.3287 68.8671 20.1072 69.176 19.9532C69.4849 19.7991 69.8855 19.6402 70.3779 19.4765C70.8992 19.3032 71.2805 19.1443 71.5218 18.9998C71.7632 18.8554 71.8839 18.6532 71.8839 18.3932V17.1076C71.8839 16.7994 71.8066 16.525 71.6522 16.2843C71.4977 16.0435 71.2322 15.9232 70.8557 15.9232C70.5565 15.9232 70.2862 16.005 70.0448 16.1687C70.3731 16.2843 70.6144 16.4576 70.7689 16.6887C70.933 16.9102 71.015 17.1606 71.015 17.4398C71.015 17.8154 70.8799 18.1187 70.6096 18.3498C70.3489 18.5713 70.0303 18.682 69.6539 18.682C69.2774 18.682 68.9781 18.5665 68.7561 18.3354C68.5437 18.0946 68.4375 17.7913 68.4375 17.4254C68.4375 17.1365 68.5099 16.8861 68.6547 16.6743C68.7995 16.4624 69.0264 16.2698 69.3353 16.0965C69.8759 15.7883 70.6482 15.6343 71.6522 15.6343C72.1831 15.6343 72.6417 15.6872 73.0278 15.7932C73.414 15.8895 73.7422 16.0772 74.0125 16.3565C74.2056 16.5587 74.3311 16.8139 74.389 17.122C74.4566 17.4206 74.4903 17.8394 74.4903 18.3787V22.2498C74.4903 22.4906 74.5048 22.6543 74.5338 22.7409C74.5724 22.8276 74.6351 22.8709 74.722 22.8709C74.7896 22.8709 74.862 22.8517 74.9392 22.8132C75.0165 22.765 75.0889 22.712 75.1564 22.6543L75.3013 22.8998C74.8861 23.2561 74.2924 23.4343 73.5202 23.4343C72.9409 23.4343 72.5355 23.338 72.3038 23.1454C72.0721 22.9432 71.9466 22.6735 71.9273 22.3365C71.4736 23.0683 70.7978 23.4343 69.9 23.4343ZM71.3481 22.2787C71.5508 22.2787 71.7294 22.1969 71.8839 22.0332V18.9854C71.797 19.1298 71.6377 19.3176 71.406 19.5487C71.1453 19.7991 70.9474 20.0446 70.8123 20.2854C70.6771 20.5165 70.6096 20.8343 70.6096 21.2387C70.6096 21.932 70.8557 22.2787 71.3481 22.2787Z" fill="white"/>
<path d="M77.7376 12.0376C78.2396 12.0376 78.6257 12.1435 78.896 12.3554C79.176 12.5672 79.316 12.8754 79.316 13.2798C79.316 13.6843 79.176 13.9924 78.896 14.2043C78.6257 14.4161 78.2396 14.522 77.7376 14.522C77.226 14.522 76.835 14.4161 76.5647 14.2043C76.2944 13.9924 76.1592 13.6843 76.1592 13.2798C76.1592 12.8754 76.2944 12.5672 76.5647 12.3554C76.835 12.1435 77.226 12.0376 77.7376 12.0376ZM79.1277 21.9898C79.1277 22.3846 79.1856 22.6591 79.3015 22.8132C79.427 22.9576 79.6394 23.0298 79.9386 23.0298V23.3332C78.896 23.2946 78.2106 23.2754 77.8824 23.2754C77.5542 23.2754 76.8302 23.2946 75.7103 23.3332V23.0298C76.0096 23.0298 76.2171 22.9576 76.333 22.8132C76.4585 22.6591 76.5212 22.3846 76.5212 21.9898V17.4109C76.5212 16.968 76.4585 16.6454 76.333 16.4432C76.2171 16.2409 76.0096 16.1398 75.7103 16.1398V15.8365C76.0192 15.8654 76.3185 15.8798 76.6081 15.8798C77.6121 15.8798 78.452 15.8124 79.1277 15.6776V21.9898Z" fill="white"/>
<path d="M83.5309 15.6343C83.9074 15.6343 84.2598 15.6776 84.588 15.7643C84.9259 15.8413 85.1817 15.928 85.3555 16.0243C85.4617 16.082 85.5485 16.1109 85.6161 16.1109C85.8189 16.1109 85.9395 15.9569 85.9781 15.6487H86.2677C86.2291 16.1495 86.2098 17.0161 86.2098 18.2487H85.9202C85.843 17.6132 85.6596 17.0787 85.37 16.6454C85.09 16.2024 84.6797 15.9809 84.1391 15.9809C83.8978 15.9809 83.695 16.0532 83.5309 16.1976C83.3668 16.342 83.2848 16.5395 83.2848 16.7898C83.2848 17.1076 83.391 17.3917 83.6033 17.642C83.8157 17.8828 84.1488 18.1813 84.6025 18.5376C84.6218 18.5472 84.7618 18.658 85.0224 18.8698C85.563 19.3128 85.9588 19.7076 86.2098 20.0543C86.4608 20.3913 86.5863 20.8102 86.5863 21.3109C86.5863 21.7346 86.456 22.1198 86.1953 22.4665C85.9347 22.8035 85.5775 23.0683 85.1238 23.2609C84.6797 23.4439 84.1922 23.5354 83.6613 23.5354C83.0531 23.5354 82.5559 23.415 82.1698 23.1743C82.0056 23.0876 81.8705 23.025 81.7643 22.9865C81.6581 22.948 81.5519 22.9287 81.4457 22.9287C81.2623 22.9287 81.1272 23.0972 81.0403 23.4343H80.7507C80.7893 22.8854 80.8086 21.9224 80.8086 20.5454H81.0982C81.1851 21.335 81.3975 21.9706 81.7353 22.452C82.0732 22.9335 82.498 23.1743 83.0096 23.1743C83.251 23.1743 83.4489 23.1069 83.6033 22.972C83.7674 22.8372 83.8495 22.6398 83.8495 22.3798C83.8495 22.1102 83.7916 21.8695 83.6757 21.6576C83.5695 21.4457 83.4344 21.258 83.2703 21.0943C83.1158 20.9209 82.86 20.6754 82.5028 20.3576C82.0974 19.982 81.7884 19.6835 81.5761 19.462C81.3637 19.2406 81.1803 18.9854 81.0258 18.6965C80.881 18.398 80.8086 18.0706 80.8086 17.7143C80.8086 17.3002 80.9341 16.9343 81.1851 16.6165C81.4361 16.2987 81.7691 16.058 82.1842 15.8943C82.5994 15.7209 83.0482 15.6343 83.5309 15.6343Z" fill="white"/>
<path d="M95.7863 13.3954C95.4388 13.4146 95.183 13.4532 95.0188 13.5109C94.8644 13.5687 94.7582 13.6795 94.7003 13.8432C94.6423 14.0069 94.6134 14.2717 94.6134 14.6376V22.0909C94.6134 22.3606 94.6327 22.558 94.6713 22.6832C94.7099 22.8083 94.7775 22.895 94.874 22.9432C94.9706 22.9817 95.1299 23.0009 95.3519 23.0009H95.8297C96.1676 23.0009 96.5345 22.8324 96.9303 22.4954C97.3261 22.1583 97.6833 21.7154 98.0018 21.1665C98.3204 20.608 98.5328 20.0302 98.639 19.4332H98.972C98.9431 19.7798 98.9286 20.2228 98.9286 20.762C98.9286 21.802 98.9624 22.6591 99.0299 23.3332C98.3735 23.3043 97.2681 23.2898 95.7139 23.2898C93.4549 23.2898 91.7655 23.3043 90.6457 23.3332V23.0443C90.9546 23.025 91.1767 22.9865 91.3118 22.9287C91.4566 22.8709 91.5532 22.7602 91.6014 22.5965C91.6497 22.4328 91.6738 22.168 91.6738 21.802V14.6376C91.6738 14.2717 91.6449 14.0069 91.587 13.8432C91.5387 13.6795 91.447 13.5687 91.3118 13.5109C91.1767 13.4532 90.9546 13.4146 90.6457 13.3954V13.1065C91.196 13.1354 92.0552 13.1498 93.2233 13.1498C94.3334 13.1498 95.1878 13.1354 95.7863 13.1065V13.3954Z" fill="white"/>
<path d="M101.491 23.4343C100.873 23.4343 100.405 23.2706 100.087 22.9432C99.7778 22.6061 99.6233 22.1872 99.6233 21.6865C99.6233 21.2532 99.7343 20.8969 99.9564 20.6176C100.188 20.3287 100.458 20.1072 100.767 19.9532C101.076 19.7991 101.477 19.6402 101.969 19.4765C102.49 19.3032 102.872 19.1443 103.113 18.9998C103.354 18.8554 103.475 18.6532 103.475 18.3932V17.1076C103.475 16.7994 103.398 16.525 103.243 16.2843C103.089 16.0435 102.823 15.9232 102.447 15.9232C102.148 15.9232 101.877 16.005 101.636 16.1687C101.964 16.2843 102.206 16.4576 102.36 16.6887C102.524 16.9102 102.606 17.1606 102.606 17.4398C102.606 17.8154 102.471 18.1187 102.201 18.3498C101.94 18.5713 101.622 18.682 101.245 18.682C100.869 18.682 100.569 18.5665 100.347 18.3354C100.135 18.0946 100.029 17.7913 100.029 17.4254C100.029 17.1365 100.101 16.8861 100.246 16.6743C100.391 16.4624 100.618 16.2698 100.927 16.0965C101.467 15.7883 102.239 15.6343 103.243 15.6343C103.774 15.6343 104.233 15.6872 104.619 15.7932C105.005 15.8895 105.333 16.0772 105.604 16.3565C105.797 16.5587 105.922 16.8139 105.98 17.122C106.048 17.4206 106.082 17.8394 106.082 18.3787V22.2498C106.082 22.4906 106.096 22.6543 106.125 22.7409C106.164 22.8276 106.226 22.8709 106.313 22.8709C106.381 22.8709 106.453 22.8517 106.531 22.8132C106.608 22.765 106.68 22.712 106.748 22.6543L106.893 22.8998C106.477 23.2561 105.884 23.4343 105.111 23.4343C104.532 23.4343 104.127 23.338 103.895 23.1454C103.663 22.9432 103.538 22.6735 103.519 22.3365C103.065 23.0683 102.389 23.4343 101.491 23.4343ZM102.939 22.2787C103.142 22.2787 103.321 22.1969 103.475 22.0332V18.9854C103.388 19.1298 103.229 19.3176 102.997 19.5487C102.737 19.7991 102.539 20.0446 102.404 20.2854C102.268 20.5165 102.201 20.8343 102.201 21.2387C102.201 21.932 102.447 22.2787 102.939 22.2787Z" fill="white"/>
<path d="M112.587 15.6343C113.06 15.6343 113.398 15.7787 113.601 16.0676C113.813 16.3565 113.919 16.6983 113.919 17.0932C113.919 17.5265 113.794 17.8732 113.543 18.1332C113.301 18.3835 112.983 18.5087 112.587 18.5087C112.172 18.5087 111.853 18.4172 111.631 18.2343C111.409 18.0417 111.298 17.7865 111.298 17.4687C111.298 16.9006 111.544 16.4528 112.037 16.1254C111.863 16.1254 111.708 16.1591 111.573 16.2265C111.332 16.3324 111.129 16.5057 110.965 16.7465C110.801 16.9776 110.719 17.2328 110.719 17.512V21.8454C110.719 22.298 110.811 22.6109 110.994 22.7843C111.187 22.948 111.511 23.0298 111.964 23.0298V23.3332C111.839 23.3332 111.733 23.3283 111.646 23.3187C110.632 23.2898 109.956 23.2754 109.618 23.2754C109.319 23.2754 108.648 23.2898 107.606 23.3187C107.528 23.3283 107.427 23.3332 107.302 23.3332V23.0298C107.601 23.0298 107.808 22.9576 107.924 22.8132C108.05 22.6591 108.112 22.3846 108.112 21.9898V17.4109C108.112 16.968 108.05 16.6454 107.924 16.4432C107.808 16.2409 107.601 16.1398 107.302 16.1398V15.8365C107.611 15.8654 107.91 15.8798 108.199 15.8798C109.203 15.8798 110.043 15.8124 110.719 15.6776V16.7176C111.086 15.9954 111.708 15.6343 112.587 15.6343Z" fill="white"/>
<path d="M116.156 23.4343C115.538 23.4343 115.07 23.2706 114.751 22.9432C114.442 22.6061 114.288 22.1872 114.288 21.6865C114.288 21.2532 114.399 20.8969 114.621 20.6176C114.852 20.3287 115.123 20.1072 115.432 19.9532C115.741 19.7991 116.141 19.6402 116.633 19.4765C117.155 19.3032 117.536 19.1443 117.777 18.9998C118.019 18.8554 118.139 18.6532 118.139 18.3932V17.1076C118.139 16.7994 118.062 16.525 117.908 16.2843C117.753 16.0435 117.488 15.9232 117.111 15.9232C116.812 15.9232 116.542 16.005 116.3 16.1687C116.629 16.2843 116.87 16.4576 117.024 16.6887C117.189 16.9102 117.271 17.1606 117.271 17.4398C117.271 17.8154 117.135 18.1187 116.865 18.3498C116.605 18.5713 116.286 18.682 115.909 18.682C115.533 18.682 115.234 18.5665 115.012 18.3354C114.799 18.0946 114.693 17.7913 114.693 17.4254C114.693 17.1365 114.766 16.8861 114.91 16.6743C115.055 16.4624 115.282 16.2698 115.591 16.0965C116.131 15.7883 116.904 15.6343 117.908 15.6343C118.439 15.6343 118.897 15.6872 119.283 15.7932C119.67 15.8895 119.998 16.0772 120.268 16.3565C120.461 16.5587 120.587 16.8139 120.645 17.122C120.712 17.4206 120.746 17.8394 120.746 18.3787V22.2498C120.746 22.4906 120.76 22.6543 120.789 22.7409C120.828 22.8276 120.891 22.8709 120.978 22.8709C121.045 22.8709 121.118 22.8517 121.195 22.8132C121.272 22.765 121.344 22.712 121.412 22.6543L121.557 22.8998C121.142 23.2561 120.548 23.4343 119.776 23.4343C119.197 23.4343 118.791 23.338 118.559 23.1454C118.328 22.9432 118.202 22.6735 118.183 22.3365C117.729 23.0683 117.053 23.4343 116.156 23.4343ZM117.604 22.2787C117.806 22.2787 117.985 22.1969 118.139 22.0332V18.9854C118.053 19.1298 117.893 19.3176 117.662 19.5487C117.401 19.7991 117.203 20.0446 117.068 20.2854C116.933 20.5165 116.865 20.8343 116.865 21.2387C116.865 21.932 117.111 22.2787 117.604 22.2787Z" fill="white"/>
<path d="M50.9209 26.8443H51.1837L52.4981 29.9999H52.1684L51.7585 29.0132H50.3372L49.9317 29.9999H49.5976L50.9209 26.8443ZM51.6872 28.7688L51.0501 27.2088L50.404 28.7688H51.6872Z" fill="white"/>
<path d="M54.7528 27.4354C54.6637 27.3347 54.5449 27.2532 54.3964 27.191C54.2478 27.1288 54.0785 27.0976 53.8884 27.0976C53.6092 27.0976 53.4057 27.151 53.278 27.2576C53.1503 27.3614 53.0864 27.5036 53.0864 27.6843C53.0864 27.7791 53.1028 27.8576 53.1354 27.9199C53.1711 27.9791 53.2245 28.031 53.2958 28.0754C53.3671 28.1199 53.4577 28.1584 53.5676 28.191C53.6805 28.2236 53.8127 28.2562 53.9642 28.2888C54.1335 28.3243 54.285 28.3643 54.4186 28.4088C54.5553 28.4532 54.6711 28.5095 54.7662 28.5776C54.8612 28.6428 54.934 28.7228 54.9845 28.8176C55.035 28.9125 55.0602 29.031 55.0602 29.1732C55.0602 29.3184 55.032 29.4443 54.9756 29.551C54.9191 29.6576 54.8404 29.7465 54.7394 29.8176C54.6384 29.8888 54.5181 29.9421 54.3785 29.9776C54.2389 30.0102 54.086 30.0265 53.9196 30.0265C53.4295 30.0265 53.0062 29.8739 52.6498 29.5688L52.8057 29.3154C52.8622 29.3747 52.929 29.431 53.0062 29.4843C53.0864 29.5376 53.1741 29.5851 53.2691 29.6265C53.3671 29.6651 53.4711 29.6962 53.581 29.7199C53.6909 29.7406 53.8067 29.751 53.9285 29.751C54.181 29.751 54.377 29.7065 54.5167 29.6176C54.6592 29.5258 54.7305 29.388 54.7305 29.2043C54.7305 29.1065 54.7097 29.0251 54.6681 28.9599C54.6295 28.8917 54.5701 28.8339 54.4899 28.7865C54.4097 28.7362 54.3102 28.6932 54.1914 28.6576C54.0726 28.6221 53.9345 28.5865 53.777 28.551C53.6107 28.5125 53.4651 28.4725 53.3404 28.431C53.2156 28.3895 53.1102 28.3376 53.024 28.2754C52.9379 28.2132 52.8726 28.1391 52.828 28.0532C52.7864 27.9643 52.7656 27.8562 52.7656 27.7288C52.7656 27.5836 52.7924 27.4547 52.8458 27.3421C52.9023 27.2265 52.981 27.1317 53.082 27.0576C53.183 26.9806 53.3018 26.9228 53.4384 26.8843C53.5751 26.8428 53.7265 26.8221 53.8929 26.8221C54.1038 26.8221 54.2909 26.8547 54.4543 26.9199C54.6206 26.9821 54.7706 27.071 54.9043 27.1865L54.7528 27.4354Z" fill="white"/>
<path d="M57.4592 27.4354C57.3701 27.3347 57.2513 27.2532 57.1027 27.191C56.9542 27.1288 56.7849 27.0976 56.5948 27.0976C56.3156 27.0976 56.1121 27.151 55.9844 27.2576C55.8567 27.3614 55.7928 27.5036 55.7928 27.6843C55.7928 27.7791 55.8092 27.8576 55.8418 27.9199C55.8775 27.9791 55.9309 28.031 56.0022 28.0754C56.0735 28.1199 56.1641 28.1584 56.274 28.191C56.3869 28.2236 56.5191 28.2562 56.6706 28.2888C56.8399 28.3243 56.9914 28.3643 57.125 28.4088C57.2617 28.4532 57.3775 28.5095 57.4726 28.5776C57.5676 28.6428 57.6404 28.7228 57.6909 28.8176C57.7414 28.9125 57.7666 29.031 57.7666 29.1732C57.7666 29.3184 57.7384 29.4443 57.682 29.551C57.6255 29.6576 57.5468 29.7465 57.4458 29.8176C57.3448 29.8888 57.2245 29.9421 57.0849 29.9776C56.9453 30.0102 56.7923 30.0265 56.626 30.0265C56.1359 30.0265 55.7126 29.8739 55.3562 29.5688L55.5121 29.3154C55.5686 29.3747 55.6354 29.431 55.7126 29.4843C55.7928 29.5376 55.8804 29.5851 55.9755 29.6265C56.0735 29.6651 56.1775 29.6962 56.2874 29.7199C56.3973 29.7406 56.5131 29.751 56.6349 29.751C56.8874 29.751 57.0834 29.7065 57.223 29.6176C57.3656 29.5258 57.4369 29.388 57.4369 29.2043C57.4369 29.1065 57.4161 29.0251 57.3745 28.9599C57.3359 28.8917 57.2765 28.8339 57.1963 28.7865C57.1161 28.7362 57.0166 28.6932 56.8978 28.6576C56.779 28.6221 56.6409 28.5865 56.4834 28.551C56.3171 28.5125 56.1715 28.4725 56.0468 28.431C55.922 28.3895 55.8166 28.3376 55.7304 28.2754C55.6443 28.2132 55.579 28.1391 55.5344 28.0532C55.4928 27.9643 55.472 27.8562 55.472 27.7288C55.472 27.5836 55.4988 27.4547 55.5522 27.3421C55.6087 27.2265 55.6874 27.1317 55.7884 27.0576C55.8894 26.9806 56.0082 26.9228 56.1448 26.8843C56.2814 26.8428 56.4329 26.8221 56.5993 26.8221C56.8102 26.8221 56.9973 26.8547 57.1607 26.9199C57.327 26.9821 57.477 27.071 57.6107 27.1865L57.4592 27.4354Z" fill="white"/>
<path d="M60.4418 29.7243V29.9999H58.3165V26.8443H60.4017V27.1199H58.6284V28.2576H60.1745V28.5199H58.6284V29.7243H60.4418Z" fill="white"/>
<path d="M62.8154 27.4354C62.7263 27.3347 62.6075 27.2532 62.459 27.191C62.3105 27.1288 62.1411 27.0976 61.951 27.0976C61.6718 27.0976 61.4684 27.151 61.3406 27.2576C61.2129 27.3614 61.149 27.5036 61.149 27.6843C61.149 27.7791 61.1654 27.8576 61.1981 27.9199C61.2337 27.9791 61.2872 28.031 61.3584 28.0754C61.4297 28.1199 61.5203 28.1584 61.6302 28.191C61.7431 28.2236 61.8753 28.2562 62.0268 28.2888C62.1961 28.3243 62.3476 28.3643 62.4812 28.4088C62.6179 28.4532 62.7337 28.5095 62.8288 28.5776C62.9238 28.6428 62.9966 28.7228 63.0471 28.8176C63.0976 28.9125 63.1228 29.031 63.1228 29.1732C63.1228 29.3184 63.0946 29.4443 63.0382 29.551C62.9818 29.6576 62.903 29.7465 62.802 29.8176C62.7011 29.8888 62.5808 29.9421 62.4411 29.9776C62.3015 30.0102 62.1486 30.0265 61.9822 30.0265C61.4921 30.0265 61.0688 29.8739 60.7124 29.5688L60.8683 29.3154C60.9248 29.3747 60.9916 29.431 61.0688 29.4843C61.149 29.5376 61.2367 29.5851 61.3317 29.6265C61.4297 29.6651 61.5337 29.6962 61.6436 29.7199C61.7535 29.7406 61.8694 29.751 61.9911 29.751C62.2436 29.751 62.4397 29.7065 62.5793 29.6176C62.7218 29.5258 62.7931 29.388 62.7931 29.2043C62.7931 29.1065 62.7723 29.0251 62.7308 28.9599C62.6921 28.8917 62.6327 28.8339 62.5525 28.7865C62.4723 28.7362 62.3728 28.6932 62.254 28.6576C62.1352 28.6221 61.9971 28.5865 61.8396 28.551C61.6733 28.5125 61.5278 28.4725 61.403 28.431C61.2783 28.3895 61.1728 28.3376 61.0867 28.2754C61.0005 28.2132 60.9352 28.1391 60.8906 28.0532C60.849 27.9643 60.8282 27.8562 60.8282 27.7288C60.8282 27.5836 60.855 27.4547 60.9084 27.3421C60.9649 27.2265 61.0436 27.1317 61.1446 27.0576C61.2456 26.9806 61.3644 26.9228 61.501 26.8843C61.6377 26.8428 61.7892 26.8221 61.9555 26.8221C62.1664 26.8221 62.3535 26.8547 62.5169 26.9199C62.6832 26.9821 62.8332 27.071 62.9669 27.1865L62.8154 27.4354Z" fill="white"/>
<path d="M65.5218 27.4354C65.4327 27.3347 65.3139 27.2532 65.1654 27.191C65.0168 27.1288 64.8475 27.0976 64.6574 27.0976C64.3782 27.0976 64.1747 27.151 64.047 27.2576C63.9193 27.3614 63.8554 27.5036 63.8554 27.6843C63.8554 27.7791 63.8718 27.8576 63.9044 27.9199C63.9401 27.9791 63.9936 28.031 64.0648 28.0754C64.1361 28.1199 64.2267 28.1584 64.3366 28.191C64.4495 28.2236 64.5817 28.2562 64.7332 28.2888C64.9025 28.3243 65.054 28.3643 65.1876 28.4088C65.3243 28.4532 65.4401 28.5095 65.5352 28.5776C65.6302 28.6428 65.703 28.7228 65.7535 28.8176C65.804 28.9125 65.8292 29.031 65.8292 29.1732C65.8292 29.3184 65.801 29.4443 65.7446 29.551C65.6881 29.6576 65.6094 29.7465 65.5084 29.8176C65.4074 29.8888 65.2871 29.9421 65.1475 29.9776C65.0079 30.0102 64.855 30.0265 64.6886 30.0265C64.1985 30.0265 63.7752 29.8739 63.4188 29.5688L63.5747 29.3154C63.6312 29.3747 63.698 29.431 63.7752 29.4843C63.8554 29.5376 63.9431 29.5851 64.0381 29.6265C64.1361 29.6651 64.2401 29.6962 64.35 29.7199C64.4599 29.7406 64.5757 29.751 64.6975 29.751C64.95 29.751 65.1461 29.7065 65.2857 29.6176C65.4282 29.5258 65.4995 29.388 65.4995 29.2043C65.4995 29.1065 65.4787 29.0251 65.4371 28.9599C65.3985 28.8917 65.3391 28.8339 65.2589 28.7865C65.1787 28.7362 65.0792 28.6932 64.9604 28.6576C64.8416 28.6221 64.7035 28.5865 64.546 28.551C64.3797 28.5125 64.2342 28.4725 64.1094 28.431C63.9846 28.3895 63.8792 28.3376 63.7931 28.2754C63.7069 28.2132 63.6416 28.1391 63.597 28.0532C63.5554 27.9643 63.5346 27.8562 63.5346 27.7288C63.5346 27.5836 63.5614 27.4547 63.6148 27.3421C63.6713 27.2265 63.75 27.1317 63.851 27.0576C63.952 26.9806 64.0708 26.9228 64.2074 26.8843C64.3441 26.8428 64.4955 26.8221 64.6619 26.8221C64.8728 26.8221 65.0599 26.8547 65.2233 26.9199C65.3896 26.9821 65.5396 27.071 65.6733 27.1865L65.5218 27.4354Z" fill="white"/>
<path d="M67.6534 30.0221C67.4336 30.0221 67.2316 29.9776 67.0475 29.8888C66.8663 29.7969 66.7103 29.6769 66.5796 29.5288C66.449 29.3776 66.348 29.2058 66.2767 29.0132C66.2054 28.8206 66.1697 28.6236 66.1697 28.4221C66.1697 28.2117 66.2069 28.0102 66.2811 27.8176C66.3584 27.6251 66.4638 27.4547 66.5975 27.3065C66.7311 27.1584 66.8886 27.0414 67.0698 26.9554C67.2509 26.8665 67.447 26.8221 67.6579 26.8221C67.8777 26.8221 68.0782 26.8695 68.2594 26.9643C68.4435 27.0562 68.5995 27.1776 68.7272 27.3288C68.8579 27.4799 68.9589 27.6517 69.0302 27.8443C69.1015 28.0339 69.1371 28.228 69.1371 28.4265C69.1371 28.6369 69.0985 28.8384 69.0213 29.031C68.947 29.2236 68.8431 29.3939 68.7094 29.5421C68.5787 29.6873 68.4228 29.8043 68.2416 29.8932C68.0604 29.9791 67.8643 30.0221 67.6534 30.0221ZM66.4816 28.4221C66.4816 28.5939 66.5098 28.7599 66.5663 28.9199C66.6227 29.0769 66.7029 29.2176 66.8069 29.3421C66.9108 29.4636 67.0341 29.5614 67.1767 29.6354C67.3193 29.7065 67.4782 29.7421 67.6534 29.7421C67.8317 29.7421 67.9935 29.7036 68.1391 29.6265C68.2846 29.5495 68.4079 29.4488 68.5089 29.3243C68.6099 29.1999 68.6871 29.0591 68.7406 28.9021C68.797 28.7451 68.8252 28.5851 68.8252 28.4221C68.8252 28.2502 68.7955 28.0858 68.7361 27.9288C68.6797 27.7688 68.5995 27.628 68.4955 27.5065C68.3916 27.3851 68.2683 27.2888 68.1257 27.2176C67.9831 27.1436 67.8257 27.1065 67.6534 27.1065C67.4752 27.1065 67.3133 27.1451 67.1678 27.2221C67.0222 27.2962 66.899 27.3954 66.798 27.5199C66.697 27.6443 66.6183 27.7851 66.5618 27.9421C66.5084 28.0991 66.4816 28.2591 66.4816 28.4221Z" fill="white"/>
<path d="M69.7252 29.9999V26.8443H71.0618C71.1985 26.8443 71.3232 26.8739 71.4361 26.9332C71.5519 26.9895 71.6514 27.0651 71.7346 27.1599C71.8178 27.2517 71.8816 27.3569 71.9262 27.4754C71.9737 27.5939 71.9975 27.7139 71.9975 27.8354C71.9975 27.951 71.9797 28.0621 71.944 28.1688C71.9113 28.2725 71.8638 28.3673 71.8014 28.4532C71.742 28.5362 71.6693 28.6073 71.5831 28.6665C71.497 28.7228 71.4004 28.7614 71.2935 28.7821L72.0688 29.9999H71.7168L70.9727 28.8354H70.037V29.9999H69.7252ZM70.037 28.5599H71.0707C71.1628 28.5599 71.246 28.5406 71.3202 28.5021C71.3975 28.4606 71.4628 28.4058 71.5163 28.3376C71.5697 28.2695 71.6113 28.1925 71.641 28.1065C71.6707 28.0206 71.6856 27.9302 71.6856 27.8354C71.6856 27.7406 71.6678 27.6502 71.6321 27.5643C71.5995 27.4754 71.5534 27.3984 71.494 27.3332C71.4376 27.268 71.3692 27.2162 71.289 27.1776C71.2118 27.1391 71.1301 27.1199 71.044 27.1199H70.037V28.5599Z" fill="white"/>
<path d="M72.636 29.9999V26.8443H72.9479V29.9999H72.636Z" fill="white"/>
<path d="M74.7215 26.8443H74.9843L76.2987 29.9999H75.969L75.5591 29.0132H74.1378L73.7323 29.9999H73.3982L74.7215 26.8443ZM75.4878 28.7688L74.8507 27.2088L74.2046 28.7688H75.4878Z" fill="white"/>
<path d="M79.8739 29.7243V29.9999H77.7486V26.8443H79.8338V27.1199H78.0605V28.2576H79.6066V28.5199H78.0605V29.7243H79.8739Z" fill="white"/>
<path d="M81.3899 28.3999C81.3899 28.2102 81.4226 28.0221 81.488 27.8354C81.5563 27.6458 81.6543 27.4769 81.782 27.3288C81.9097 27.1806 82.0672 27.0606 82.2543 26.9688C82.4414 26.8739 82.6538 26.8265 82.8914 26.8265C83.1736 26.8265 83.4142 26.8902 83.6132 27.0176C83.8152 27.1451 83.9637 27.311 84.0588 27.5154L83.8137 27.6665C83.7632 27.5628 83.7009 27.4754 83.6266 27.4043C83.5553 27.3332 83.4781 27.2754 83.3949 27.231C83.3118 27.1865 83.2256 27.1554 83.1365 27.1376C83.0474 27.1169 82.9598 27.1065 82.8736 27.1065C82.6835 27.1065 82.5157 27.1451 82.3702 27.2221C82.2246 27.2991 82.1013 27.3999 82.0003 27.5243C81.9023 27.6488 81.8281 27.7895 81.7776 27.9465C81.7271 28.1006 81.7018 28.2576 81.7018 28.4176C81.7018 28.5925 81.7315 28.7599 81.7909 28.9199C81.8533 29.0799 81.9365 29.2221 82.0404 29.3465C82.1474 29.468 82.2721 29.5658 82.4147 29.6399C82.5603 29.711 82.7177 29.7465 82.887 29.7465C82.9761 29.7465 83.0667 29.7362 83.1588 29.7154C83.2538 29.6917 83.3444 29.6562 83.4306 29.6088C83.5197 29.5584 83.6014 29.4976 83.6756 29.4265C83.7499 29.3525 83.8123 29.2636 83.8628 29.1599L84.1212 29.2932C84.0707 29.4117 83.9994 29.5169 83.9073 29.6088C83.8152 29.6976 83.7128 29.7732 83.5999 29.8354C83.487 29.8976 83.3667 29.9451 83.239 29.9776C83.1142 30.0102 82.991 30.0265 82.8692 30.0265C82.6523 30.0265 82.4533 29.9791 82.2721 29.8843C82.0909 29.7895 81.935 29.6665 81.8043 29.5154C81.6736 29.3614 81.5711 29.188 81.4969 28.9954C81.4256 28.7999 81.3899 28.6014 81.3899 28.3999Z" fill="white"/>
<path d="M85.8977 30.0221C85.6778 30.0221 85.4759 29.9776 85.2917 29.8888C85.1105 29.7969 84.9546 29.6769 84.8239 29.5288C84.6932 29.3776 84.5922 29.2058 84.5209 29.0132C84.4496 28.8206 84.414 28.6236 84.414 28.4221C84.414 28.2117 84.4511 28.0102 84.5253 27.8176C84.6026 27.6251 84.708 27.4547 84.8417 27.3065C84.9754 27.1584 85.1328 27.0414 85.314 26.9554C85.4952 26.8665 85.6912 26.8221 85.9021 26.8221C86.1219 26.8221 86.3224 26.8695 86.5036 26.9643C86.6878 27.0562 86.8437 27.1776 86.9714 27.3288C87.1021 27.4799 87.2031 27.6517 87.2744 27.8443C87.3457 28.0339 87.3813 28.228 87.3813 28.4265C87.3813 28.6369 87.3427 28.8384 87.2655 29.031C87.1912 29.2236 87.0873 29.3939 86.9536 29.5421C86.8229 29.6873 86.667 29.8043 86.4858 29.8932C86.3046 29.9791 86.1085 30.0221 85.8977 30.0221ZM84.7258 28.4221C84.7258 28.5939 84.7541 28.7599 84.8105 28.9199C84.8669 29.0769 84.9471 29.2176 85.0511 29.3421C85.1551 29.4636 85.2783 29.5614 85.4209 29.6354C85.5635 29.7065 85.7224 29.7421 85.8977 29.7421C86.0759 29.7421 86.2378 29.7036 86.3833 29.6265C86.5289 29.5495 86.6521 29.4488 86.7531 29.3243C86.8541 29.1999 86.9313 29.0591 86.9848 28.9021C87.0412 28.7451 87.0695 28.5851 87.0695 28.4221C87.0695 28.2502 87.0398 28.0858 86.9803 27.9288C86.9239 27.7688 86.8437 27.628 86.7397 27.5065C86.6358 27.3851 86.5125 27.2888 86.3699 27.2176C86.2274 27.1436 86.0699 27.1065 85.8977 27.1065C85.7194 27.1065 85.5575 27.1451 85.412 27.2221C85.2664 27.2962 85.1432 27.3954 85.0422 27.5199C84.9412 27.6443 84.8625 27.7851 84.806 27.9421C84.7526 28.0991 84.7258 28.2591 84.7258 28.4221Z" fill="white"/>
<path d="M88.2813 27.4221V29.9999H87.9694V26.8443H88.21L90.3041 29.471V26.8488H90.616V29.9999H90.3442L88.2813 27.4221Z" fill="white"/>
<path d="M93.2602 27.4354C93.171 27.3347 93.0522 27.2532 92.9037 27.191C92.7552 27.1288 92.5859 27.0976 92.3958 27.0976C92.1166 27.0976 91.9131 27.151 91.7854 27.2576C91.6576 27.3614 91.5938 27.5036 91.5938 27.6843C91.5938 27.7791 91.6101 27.8576 91.6428 27.9199C91.6784 27.9791 91.7319 28.031 91.8032 28.0754C91.8745 28.1199 91.9651 28.1584 92.075 28.191C92.1879 28.2236 92.32 28.2562 92.4715 28.2888C92.6408 28.3243 92.7923 28.3643 92.926 28.4088C93.0626 28.4532 93.1785 28.5095 93.2735 28.5776C93.3686 28.6428 93.4413 28.7228 93.4918 28.8176C93.5423 28.9125 93.5676 29.031 93.5676 29.1732C93.5676 29.3184 93.5394 29.4443 93.4829 29.551C93.4265 29.6576 93.3478 29.7465 93.2468 29.8176C93.1458 29.8888 93.0255 29.9421 92.8859 29.9776C92.7463 30.0102 92.5933 30.0265 92.427 30.0265C91.9369 30.0265 91.5136 29.8739 91.1571 29.5688L91.3131 29.3154C91.3695 29.3747 91.4364 29.431 91.5136 29.4843C91.5938 29.5376 91.6814 29.5851 91.7765 29.6265C91.8745 29.6651 91.9784 29.6962 92.0883 29.7199C92.1982 29.7406 92.3141 29.751 92.4359 29.751C92.6884 29.751 92.8844 29.7065 93.024 29.6176C93.1666 29.5258 93.2379 29.388 93.2379 29.2043C93.2379 29.1065 93.2171 29.0251 93.1755 28.9599C93.1369 28.8917 93.0775 28.8339 92.9973 28.7865C92.9171 28.7362 92.8176 28.6932 92.6988 28.6576C92.5799 28.6221 92.4418 28.5865 92.2844 28.551C92.118 28.5125 91.9725 28.4725 91.8477 28.431C91.723 28.3895 91.6175 28.3376 91.5314 28.2754C91.4453 28.2132 91.3799 28.1391 91.3354 28.0532C91.2938 27.9643 91.273 27.8562 91.273 27.7288C91.273 27.5836 91.2997 27.4547 91.3532 27.3421C91.4096 27.2265 91.4883 27.1317 91.5893 27.0576C91.6903 26.9806 91.8091 26.9228 91.9458 26.8843C92.0824 26.8428 92.2339 26.8221 92.4002 26.8221C92.6111 26.8221 92.7983 26.8547 92.9616 26.9199C93.128 26.9821 93.278 27.071 93.4116 27.1865L93.2602 27.4354Z" fill="white"/>
<path d="M95.4007 29.7421C95.5997 29.7421 95.7646 29.7051 95.8953 29.631C96.0289 29.5539 96.1344 29.4547 96.2116 29.3332C96.2918 29.2088 96.3467 29.068 96.3765 28.911C96.4091 28.7539 96.4255 28.5954 96.4255 28.4354V26.8443H96.7374V28.4354C96.7374 28.6488 96.7136 28.8517 96.6661 29.0443C96.6185 29.2339 96.5413 29.4014 96.4344 29.5465C96.3304 29.6917 96.1938 29.8073 96.0245 29.8932C95.8552 29.9791 95.6487 30.0221 95.4051 30.0221C95.1556 30.0221 94.9447 29.9776 94.7725 29.8888C94.6031 29.7969 94.4665 29.6769 94.3626 29.5288C94.2586 29.3806 94.1843 29.2117 94.1398 29.0221C94.0952 28.8325 94.0729 28.6369 94.0729 28.4354V26.8443H94.3804V28.4354C94.3804 28.6014 94.3967 28.7628 94.4294 28.9199C94.4621 29.0769 94.517 29.2162 94.5942 29.3376C94.6744 29.4591 94.7799 29.5569 94.9106 29.631C95.0413 29.7051 95.2046 29.7421 95.4007 29.7421Z" fill="white"/>
<path d="M97.4809 29.9999V26.8443H97.7928V29.7243H99.6196V29.9999H97.4809Z" fill="white"/>
<path d="M101.798 27.1199H100.67V29.9999H100.358V27.1199H99.2312V26.8443H101.798V27.1199Z" fill="white"/>
<path d="M103.398 30.0221C103.178 30.0221 102.976 29.9776 102.792 29.8888C102.611 29.7969 102.455 29.6769 102.324 29.5288C102.193 29.3776 102.092 29.2058 102.021 29.0132C101.95 28.8206 101.914 28.6236 101.914 28.4221C101.914 28.2117 101.951 28.0102 102.026 27.8176C102.103 27.6251 102.208 27.4547 102.342 27.3065C102.476 27.1584 102.633 27.0414 102.814 26.9554C102.995 26.8665 103.191 26.8221 103.402 26.8221C103.622 26.8221 103.823 26.8695 104.004 26.9643C104.188 27.0562 104.344 27.1776 104.472 27.3288C104.602 27.4799 104.703 27.6517 104.775 27.8443C104.846 28.0339 104.882 28.228 104.882 28.4265C104.882 28.6369 104.843 28.8384 104.766 29.031C104.691 29.2236 104.587 29.3939 104.454 29.5421C104.323 29.6873 104.167 29.8043 103.986 29.8932C103.805 29.9791 103.609 30.0221 103.398 30.0221ZM102.226 28.4221C102.226 28.5939 102.254 28.7599 102.311 28.9199C102.367 29.0769 102.447 29.2176 102.551 29.3421C102.655 29.4636 102.779 29.5614 102.921 29.6354C103.064 29.7065 103.223 29.7421 103.398 29.7421C103.576 29.7421 103.738 29.7036 103.883 29.6265C104.029 29.5495 104.152 29.4488 104.253 29.3243C104.354 29.1999 104.432 29.0591 104.485 28.9021C104.541 28.7451 104.57 28.5851 104.57 28.4221C104.57 28.2502 104.54 28.0858 104.481 27.9288C104.424 27.7688 104.344 27.628 104.24 27.5065C104.136 27.3851 104.013 27.2888 103.87 27.2176C103.728 27.1436 103.57 27.1065 103.398 27.1065C103.22 27.1065 103.058 27.1451 102.912 27.2221C102.767 27.2962 102.643 27.3954 102.542 27.5199C102.441 27.6443 102.363 27.7851 102.306 27.9421C102.253 28.0991 102.226 28.2591 102.226 28.4221Z" fill="white"/>
<path d="M105.47 29.9999V26.8443H106.806C106.943 26.8443 107.068 26.8739 107.18 26.9332C107.296 26.9895 107.396 27.0651 107.479 27.1599C107.562 27.2517 107.626 27.3569 107.671 27.4754C107.718 27.5939 107.742 27.7139 107.742 27.8354C107.742 27.951 107.724 28.0621 107.688 28.1688C107.656 28.2725 107.608 28.3673 107.546 28.4532C107.486 28.5362 107.414 28.6073 107.328 28.6665C107.241 28.7228 107.145 28.7614 107.038 28.7821L107.813 29.9999H107.461L106.717 28.8354H105.781V29.9999H105.47ZM105.781 28.5599H106.815C106.907 28.5599 106.99 28.5406 107.065 28.5021C107.142 28.4606 107.207 28.4058 107.261 28.3376C107.314 28.2695 107.356 28.1925 107.385 28.1065C107.415 28.0206 107.43 27.9302 107.43 27.8354C107.43 27.7406 107.412 27.6502 107.377 27.5643C107.344 27.4754 107.298 27.3984 107.238 27.3332C107.182 27.268 107.114 27.2162 107.033 27.1776C106.956 27.1391 106.875 27.1199 106.788 27.1199H105.781V28.5599Z" fill="white"/>
<path d="M108.38 29.9999V26.8443H108.692V29.9999H108.38Z" fill="white"/>
<path d="M110.466 26.8443H110.729L112.043 29.9999H111.713L111.303 29.0132H109.882L109.477 29.9999H109.143L110.466 26.8443ZM111.232 28.7688L110.595 27.2088L109.949 28.7688H111.232Z" fill="white"/>
<path d="M113.126 29.6043C113.191 29.6488 113.275 29.6873 113.376 29.7199C113.48 29.7525 113.595 29.7688 113.723 29.7688C113.884 29.7688 114.011 29.7406 114.106 29.6843C114.204 29.6251 114.279 29.5391 114.329 29.4265C114.38 29.3139 114.412 29.1762 114.427 29.0132C114.442 28.8473 114.449 28.6591 114.449 28.4488V26.8443H114.761V28.4488C114.761 28.6888 114.749 28.908 114.726 29.1065C114.705 29.3021 114.659 29.4695 114.588 29.6088C114.516 29.748 114.412 29.8562 114.276 29.9332C114.139 30.0102 113.955 30.0488 113.723 30.0488C113.456 30.0488 113.227 29.9836 113.037 29.8532L113.126 29.6043Z" fill="white"/>
<path d="M116.799 29.7421C116.998 29.7421 117.163 29.7051 117.294 29.631C117.428 29.5539 117.533 29.4547 117.61 29.3332C117.691 29.2088 117.746 29.068 117.775 28.911C117.808 28.7539 117.824 28.5954 117.824 28.4354V26.8443H118.136V28.4354C118.136 28.6488 118.112 28.8517 118.065 29.0443C118.017 29.2339 117.94 29.4014 117.833 29.5465C117.729 29.6917 117.593 29.8073 117.423 29.8932C117.254 29.9791 117.047 30.0221 116.804 30.0221C116.554 30.0221 116.344 29.9776 116.171 29.8888C116.002 29.7969 115.865 29.6769 115.761 29.5288C115.657 29.3806 115.583 29.2117 115.539 29.0221C115.494 28.8325 115.472 28.6369 115.472 28.4354V26.8443H115.779V28.4354C115.779 28.6014 115.795 28.7628 115.828 28.9199C115.861 29.0769 115.916 29.2162 115.993 29.3376C116.073 29.4591 116.179 29.5569 116.309 29.631C116.44 29.7051 116.603 29.7421 116.799 29.7421Z" fill="white"/>
<path d="M118.88 29.9999V26.8443H120.216C120.353 26.8443 120.478 26.8739 120.591 26.9332C120.706 26.9895 120.806 27.0651 120.889 27.1599C120.972 27.2517 121.036 27.3569 121.081 27.4754C121.128 27.5939 121.152 27.7139 121.152 27.8354C121.152 27.951 121.134 28.0621 121.099 28.1688C121.066 28.2725 121.018 28.3673 120.956 28.4532C120.897 28.5362 120.824 28.6073 120.738 28.6665C120.652 28.7228 120.555 28.7614 120.448 28.7821L121.223 29.9999H120.871L120.127 28.8354H119.192V29.9999H118.88ZM119.192 28.5599H120.225C120.317 28.5599 120.401 28.5406 120.475 28.5021C120.552 28.4606 120.617 28.4058 120.671 28.3376C120.724 28.2695 120.766 28.1925 120.796 28.1065C120.825 28.0206 120.84 27.9302 120.84 27.8354C120.84 27.7406 120.822 27.6502 120.787 27.5643C120.754 27.4754 120.708 27.3984 120.649 27.3332C120.592 27.268 120.524 27.2162 120.444 27.1776C120.366 27.1391 120.285 27.1199 120.199 27.1199H119.192V28.5599Z" fill="white"/>
<path d="M121.791 29.9999V26.8443H122.102V29.9999H121.791ZM121.973 26.4132L121.773 26.3376L122.036 25.9243H122.356L121.973 26.4132Z" fill="white"/>
<path d="M122.896 29.9999V26.8443H123.97C124.222 26.8443 124.442 26.8858 124.629 26.9688C124.819 27.0517 124.977 27.1643 125.101 27.3065C125.229 27.4488 125.324 27.6162 125.386 27.8088C125.452 27.9984 125.484 28.2014 125.484 28.4176C125.484 28.6576 125.449 28.8754 125.378 29.071C125.306 29.2636 125.204 29.4295 125.07 29.5688C124.939 29.7051 124.78 29.8117 124.593 29.8888C124.409 29.9628 124.201 29.9999 123.97 29.9999H122.896ZM125.173 28.4176C125.173 28.228 125.146 28.0547 125.092 27.8976C125.039 27.7376 124.96 27.5999 124.856 27.4843C124.755 27.3688 124.63 27.2799 124.482 27.2176C124.333 27.1525 124.163 27.1199 123.97 27.1199H123.208V29.7243H123.97C124.166 29.7243 124.338 29.6917 124.486 29.6265C124.638 29.5584 124.764 29.4665 124.865 29.351C124.966 29.2325 125.042 29.0947 125.092 28.9376C125.146 28.7776 125.173 28.6043 125.173 28.4176Z" fill="white"/>
<path d="M126.081 29.9999V26.8443H126.393V29.9999H126.081Z" fill="white"/>
<path d="M126.977 28.3999C126.977 28.2102 127.009 28.0221 127.075 27.8354C127.143 27.6458 127.241 27.4769 127.369 27.3288C127.496 27.1806 127.654 27.0606 127.841 26.9688C128.028 26.8739 128.24 26.8265 128.478 26.8265C128.76 26.8265 129.001 26.8902 129.2 27.0176C129.402 27.1451 129.55 27.311 129.645 27.5154L129.4 27.6665C129.35 27.5628 129.287 27.4754 129.213 27.4043C129.142 27.3332 129.065 27.2754 128.982 27.231C128.898 27.1865 128.812 27.1554 128.723 27.1376C128.634 27.1169 128.546 27.1065 128.46 27.1065C128.27 27.1065 128.102 27.1451 127.957 27.2221C127.811 27.2991 127.688 27.3999 127.587 27.5243C127.489 27.6488 127.415 27.7895 127.364 27.9465C127.314 28.1006 127.288 28.2576 127.288 28.4176C127.288 28.5925 127.318 28.7599 127.378 28.9199C127.44 29.0799 127.523 29.2221 127.627 29.3465C127.734 29.468 127.859 29.5658 128.001 29.6399C128.147 29.711 128.304 29.7465 128.474 29.7465C128.563 29.7465 128.653 29.7362 128.745 29.7154C128.84 29.6917 128.931 29.6562 129.017 29.6088C129.106 29.5584 129.188 29.4976 129.262 29.4265C129.337 29.3525 129.399 29.2636 129.449 29.1599L129.708 29.2932C129.657 29.4117 129.586 29.5169 129.494 29.6088C129.402 29.6976 129.299 29.7732 129.187 29.8354C129.074 29.8976 128.953 29.9451 128.826 29.9776C128.701 30.0102 128.578 30.0265 128.456 30.0265C128.239 30.0265 128.04 29.9791 127.859 29.8843C127.678 29.7895 127.522 29.6665 127.391 29.5154C127.26 29.3614 127.158 29.188 127.083 28.9954C127.012 28.7999 126.977 28.6014 126.977 28.3999Z" fill="white"/>
<path d="M131.177 26.8443H131.44L132.754 29.9999H132.425L132.015 29.0132H130.593L130.188 29.9999H129.854L131.177 26.8443ZM131.944 28.7688L131.306 27.2088L130.66 28.7688H131.944Z" fill="white"/>
</svg>
