<svg width="16" height="16" viewBox="0 0 16 16" fill="none" xmlns="http://www.w3.org/2000/svg">
<path fill-rule="evenodd" clip-rule="evenodd" d="M11.3589 9.45564C11.1765 9.36479 10.2795 8.9255 10.1122 8.86486C9.94499 8.80426 9.82336 8.77398 9.70173 8.95571C9.5801 9.13751 9.23047 9.54656 9.124 9.66779C9.0176 9.78893 8.91116 9.80415 8.72875 9.71324C8.54627 9.62232 7.95839 9.43058 7.26151 8.81186C6.7191 8.33036 6.35295 7.73571 6.24651 7.55388C6.14011 7.37211 6.23521 7.27384 6.32655 7.18327C6.40862 7.1019 6.509 6.97115 6.6002 6.86514C6.69145 6.7591 6.72184 6.6833 6.78265 6.56221C6.84347 6.44097 6.81308 6.33493 6.76746 6.24404C6.72184 6.15316 6.35694 5.25927 6.20492 4.89563C6.05682 4.54161 5.90641 4.58956 5.79441 4.58392C5.68811 4.57866 5.56634 4.57754 5.44474 4.57754C5.32311 4.57754 5.12543 4.62298 4.95822 4.80475C4.79097 4.98659 4.31964 5.42592 4.31964 6.31973C4.31964 7.21359 4.97341 8.07705 5.06465 8.19825C5.15586 8.31949 6.35117 10.1537 8.18141 10.9403C8.61671 11.1274 8.95657 11.2392 9.22151 11.3228C9.6586 11.4611 10.0563 11.4416 10.3707 11.3948C10.7212 11.3427 11.4501 10.9555 11.6022 10.5313C11.7542 10.1071 11.7542 9.74352 11.7086 9.66779C11.663 9.59203 11.5414 9.54656 11.3589 9.45564ZM8.02991 13.9798H8.02746C6.93845 13.9794 5.87031 13.6882 4.93847 13.1378L4.71688 13.0069L2.41985 13.6066L3.03295 11.3776L2.88866 11.149C2.28114 10.1872 1.96029 9.0757 1.96074 7.93429C1.96207 4.60372 4.68467 1.89408 8.03233 1.89408C9.65338 1.89463 11.1772 2.52381 12.3231 3.66561C13.4689 4.80737 14.0996 6.32511 14.099 7.93913C14.0976 11.27 11.375 13.9798 8.02991 13.9798ZM13.1952 2.79788C11.8166 1.42414 9.98321 0.667271 8.02986 0.666504C4.00514 0.666504 0.729498 3.92657 0.727888 7.93368C0.727363 9.21462 1.06358 10.4649 1.70258 11.5671L0.666687 15.3332L4.53753 14.3225C5.60406 14.9015 6.80486 15.2067 8.02695 15.2071H8.02993H8.02997C12.0543 15.2071 15.3302 11.9467 15.3318 7.9395C15.3326 5.99759 14.5738 4.17159 13.1952 2.79788Z" fill="white"/>
</svg>
