<svg width="16" height="16" viewBox="0 0 16 16" fill="none" xmlns="http://www.w3.org/2000/svg">
<path fill-rule="evenodd" clip-rule="evenodd" d="M15.3333 14.5237C15.3333 14.9708 14.9709 15.3332 14.5238 15.3332H10.7864V9.65365H12.6928L12.9783 7.44013H10.7864V6.0269C10.7864 5.38604 10.9643 4.94933 11.8834 4.94933L13.0555 4.94878V2.96904C12.8527 2.94211 12.157 2.88182 11.3475 2.88182C9.65756 2.88182 8.50057 3.91335 8.50057 5.80775V7.44013H6.58925V9.65365H8.50057V15.3332H1.4762C1.02899 15.3332 0.666687 14.9708 0.666687 14.5237V1.47596C0.666687 1.02881 1.02899 0.666504 1.4762 0.666504H14.5238C14.9709 0.666504 15.3333 1.02881 15.3333 1.47596V14.5237Z" fill="white"/>
</svg>
